<svg viewBox="0 0 2250 200" xmlns="http://www.w3.org/2000/svg" preserveAspectRatio="none">

  <!-- 낮 배경 -->
  <rect width="1125" height="200" fill="#B3E5FC" />
  <!-- 밤 배경 -->
  <rect x="1125" width="1125" height="200" fill="#0A0F3C" />

  <!-- 낮 구름 6개 연결 (0 ~ 1350 위치) -->
  <g fill="#fff" opacity="0.9" id="day-clouds" transform="translate(0,0)">
    <path d="M0 150 C100 180, 150 100, 250 130 C300 80, 400 80, 450 120 L450 200 L0 200 Z" />
    <path d="M450 150 C550 180, 600 100, 700 130 C750 80, 850 80, 900 120 L900 200 L450 200 Z" />
    <path d="M900 150 C1000 180, 1050 100, 1150 130 C1200 80, 1300 80, 1350 120 L1350 200 L900 200 Z" />
    <path d="M1350 150 C1450 180, 1500 100, 1600 130 C1650 80, 1750 80, 1800 120 L1800 200 L1350 200 Z" />
    <path d="M1800 150 C1900 180, 1950 100, 2050 130 C2100 80, 2200 80, 2250 120 L2250 200 L1800 200 Z" />
    <path d="M2250 150 C2350 180, 2400 100, 2500 130 C2550 80, 2650 80, 2700 120 L2700 200 L2250 200 Z" />
    <animateTransform attributeName="transform" type="translate" values="0 0; -1350 0" dur="60s" repeatCount="indefinite" />
  </g>

  <!-- 밤 구름 6개 연결 (밤 배경 시작 위치 + 낮 구름 마지막 구름 위치부터) -->
  <g fill="#ccddee" opacity="0.85" id="night-clouds" transform="translate(1125,0)">
    <path d="M0 150 C100 180, 150 100, 250 130 C300 80, 400 80, 450 120 L450 200 L0 200 Z" />
    <path d="M450 150 C550 180, 600 100, 700 130 C750 80, 850 80, 900 120 L900 200 L450 200 Z" />
    <path d="M900 150 C1000 180, 1050 100, 1150 130 C1200 80, 1300 80, 1350 120 L1350 200 L900 200 Z" />
    <path d="M1350 150 C1450 180, 1500 100, 1600 130 C1650 80, 1750 80, 1800 120 L1800 200 L1350 200 Z" />
    <path d="M1800 150 C1900 180, 1950 100, 2050 130 C2100 80, 2200 80, 2250 120 L2250 200 L1800 200 Z" />
    <path d="M2250 150 C2350 180, 2400 100, 2500 130 C2550 80, 2650 80, 2700 120 L2700 200 L2250 200 Z" />
    <animateTransform attributeName="transform" type="translate" values="0 0; -1350 0" dur="60s" repeatCount="indefinite" />
  </g>

  <!-- 낮과 밤 새, 별 등 기존 구성은 그대로 추가 -->

</svg>
